<?xml version="1.0" encoding="UTF-8" standalone="no"?>
<svg
   width="75.482132pt"
   height="79.017639pt"
   viewBox="0 0 75.482132 79.017639"
   version="1.1"
   id="svg42"
   sodipodi:docname="ICS_Puddu_logo - trasparente-BN.svg"
   inkscape:version="1.3 (0e150ed6c4, 2023-07-21)"
   inkscape:export-filename="ICS_Puddu_logo - trasparente.png"
   inkscape:export-xdpi="462"
   inkscape:export-ydpi="462"
   xmlns:inkscape="http://www.inkscape.org/namespaces/inkscape"
   xmlns:sodipodi="http://sodipodi.sourceforge.net/DTD/sodipodi-0.dtd"
   xmlns="http://www.w3.org/2000/svg"
   xmlns:svg="http://www.w3.org/2000/svg"
   xmlns:rdf="http://www.w3.org/1999/02/22-rdf-syntax-ns#"
   xmlns:cc="http://creativecommons.org/ns#"
   xmlns:dc="http://purl.org/dc/elements/1.1/">
  <metadata
     id="metadata48">
    <rdf:RDF>
      <cc:Work
         rdf:about="">
        <dc:format>image/svg+xml</dc:format>
        <dc:type
           rdf:resource="http://purl.org/dc/dcmitype/StillImage" />
      </cc:Work>
    </rdf:RDF>
  </metadata>
  <defs
     id="defs46" />
  <sodipodi:namedview
     fit-margin-bottom="0"
     fit-margin-right="0"
     fit-margin-left="0"
     fit-margin-top="0"
     inkscape:pagecheckerboard="true"
     inkscape:document-rotation="0"
     pagecolor="#ffffff"
     bordercolor="#666666"
     borderopacity="1"
     objecttolerance="10"
     gridtolerance="10"
     guidetolerance="10"
     inkscape:pageopacity="0"
     inkscape:pageshadow="2"
     inkscape:window-width="1608"
     inkscape:window-height="932"
     id="namedview44"
     showgrid="false"
     inkscape:zoom="5.58"
     inkscape:cx="17.831541"
     inkscape:cy="54.480287"
     inkscape:window-x="0"
     inkscape:window-y="0"
     inkscape:window-maximized="0"
     inkscape:current-layer="svg42"
     inkscape:showpageshadow="0"
     inkscape:deskcolor="#d1d1d1"
     inkscape:document-units="pt" />
  <path
     style="fill:#000000;stroke:none;stroke-width:0.1"
     id="path14"
     d="m 12.871491,1.4938544 c -1.6,0.5 -2.8,1.4 -2.8,1.9 0,1.2 0.7,1.1 3.2,-0.2 2.5,-1.3 3.4,-0.5 4.2,4.3 0.6,3.3999996 0.5,3.6999996 -2.4,4.2999996 -1.6,0.4 -3.3,1.1 -3.6,1.7 -0.5,0.7 0.2,0.9 2.2,0.4 1.6,-0.4 3.3,-0.8 3.8,-0.9 0.6,-0.1 1.3,1.7 1.6,4.1 0.4,2.3 1.2,4.8 1.9,5.5 1.1,1 1.2,0.7 0.7,-1.7 -1.9,-8.1 -2,-8 2.3,-11.4 8.3,-6.5999996 0.4,-12.2999996 -11.1,-7.9999996 z m 11,0.4 c 3,0.8 2.8,3.8 -0.4,6.3 -3.6,2.7999996 -4,2.6999996 -4.7,-1.6 -0.9,-5.3 -0.1,-5.99999995 5.1,-4.7 z" />
  <path
     style="fill:#000000;stroke:none;stroke-width:0.1"
     id="path16"
     d="m 29.471491,8.8938544 c -2.4,12.5999996 9.5,19.7999996 13.3,7.9999996 l 0.9,-2.9 1.8,4.2 c 1.1,2.2 2.5,4.1 3.3,4.1 0.7,0 1.5,0 1.8,0 0.3,0 0.5,-0.3 0.5,-0.8 0,-0.4 -0.6,-0.7 -1.2,-0.7 -0.7,0 -2.4,-3 -3.8,-6.7 -2.9,-7.7999996 -4,-8.4999996 -4,-2.8 0,5.7 -2.4,10 -5.5,10 -3.8,0 -5.8,-3.9 -5.3,-10.5 0.5,-6.0999996 -0.7,-7.4999996 -1.8,-1.8999996 z" />
  <path
     style="fill:#000000;stroke:none;stroke-width:0.1"
     id="path18"
     d="m 15.071491,24.993854 c -1.4,0.3 -2.9,0.9 -3.5,1.5 -0.7,0.6 0.3,0.7 2.8,0.3 2,-0.4 3.7,-0.5 3.7,-0.2 0,2.7 2.3,11.3 3.2,11.8 1.9,1.2 0,3.9 -2.7,3.9 -1.4,0 -2.5,0.5 -2.5,1.1 0,1.1 3.6,0.6 9.7,-1.2 9.9,-3.1 8.8,-13.9 -1.8,-16.9 -3.5,-1 -4.6,-1.1 -8.9,-0.3 z m 11.7,3.3 c 6.3,3.8 6.4,8.4 0.3,11.5 -3.1,1.6 -3.8,0.9 -3.1,-2.9 0.3,-1.5 -2.1,-6.6 -3,-6.6 -0.5,0 -0.9,-0.9 -0.9,-2 0,-2.6 2.5,-2.6 6.7,0 z" />
  <path
     style="fill:#000000;stroke:none;stroke-width:0.1"
     id="path20"
     d="m 37.071491,24.993854 c -1.4,0.3 -2.9,0.9 -3.5,1.5 -0.7,0.7 0.1,0.8 2.7,0.4 4,-0.7 3.5,-1.5 5.4,8.4 0.3,1.6 1,3 1.5,3 0.5,0 0.9,0.9 0.9,2 0,1.6 -0.7,2 -3,2 -1.6,0 -3,0.4 -3,1 0,2.3 11.1,-0.8 14.6,-4.1 4.9,-4.6 1,-12 -7.2,-14 -4.1,-0.9 -4.4,-0.9 -8.4,-0.2 z m 10.5,2.7 c 7.2,3 7.9,8.8 1.5,12.1 l -3,1.6 v -4.1 c 0,-2.2 -0.5,-4 -1.1,-4 -0.5,0 -0.7,-0.5 -0.4,-1 0.3,-0.6 -0.1,-1.3 -0.9,-1.6 -1.8,-0.7 -2.2,-4.4 -0.6,-4.4 0.6,0 2.6,0.6 4.5,1.4 z" />
  <path
     style="fill:#000000;stroke:none;stroke-width:0.1"
     id="path22"
     d="m 24.671491,45.893854 c -1,2.5 -0.7,11 0.5,14.1 4.2,11.3 15.7,8.5 15.9,-3.9 0.1,-1.5 1,-0.2 2.7,3.7 2.6,6.3 3.8,7.7 6.2,7.2 2.2,-0.3 1.9,-2.2 -0.4,-2.2 -1.6,0 -2.5,-1.7 -5,-9.3 -3.5,-10.9 -4.1,-11.2 -4.7,-2.9 -0.7,8.4 -3,12.7 -6.7,12.7 -5,0 -6.6,-3.1 -6.6,-12.6 0,-8.1 -0.6,-10.2 -1.9,-6.8 z" />
  <path
     style="fill:#000000;stroke:none;stroke-width:0.1"
     id="path28"
     d="m 66.271491,60.293854 c -14.5,13.8 -26.3,16.7 -44.6,11 -7.4,-2.3 -12.6000002,-6.4 -12.6000002,-9.9 0,-2.9 -1.7000005,-3.5 -3.0000005,-1.1 -6.20000004,11.6 21.3000007,22.9 42.1000007,17.2 12.2,-3.2 32.9,-21.6 25.9,-22.9 -0.8,-0.1 -4.3,2.4 -7.8,5.7 z" />
  <g
     aria-label="*"
     transform="matrix(-0.82468478,0.51221588,-0.5678438,-0.85989387,-3.547775,-2.1870945)"
     id="text906-9"
     style="font-size:4.69529px;line-height:1.25;font-family:augie;-inkscape-font-specification:augie;letter-spacing:0px;word-spacing:0px;fill:#000000;stroke-width:0.320134">
    <path
       d="m 2.6559723,-10.105094 q -0.6302654,0.2334321 -1.4822909,0.3326405 l -1.71572261,0.1984169 q -0.93956239,0.11088 -1.65152889,0.3151327 -0.00584,0.017507 -0.00584,0.029179 0,0.1634021 0.7178023,0.5193854 0.4610275,0.2275958 0.6010865,0.361819 0,0.2042527 -0.2042527,0.4085054 -0.1984169,0.1984169 -0.4026696,0.1984169 -0.3851622,-0.093373 -0.8870402,-0.5719075 l -0.4493559,-0.4260128 q -0.00584,0.046686 -0.00584,0.1050443 v 0.093373 q 0,0.2451033 0.2042527,1.3013815 0.099208,0.5135496 0.099208,0.8870402 -0.2976253,0.1283874 -0.5193854,0.1283874 -0.2451032,0 -0.3501475,-0.1283874 -0.1925811,-0.2392674 -0.2334316,-0.6302654 -0.017507,-0.2042527 -0.081701,-0.8170108 -0.04085,-0.4026696 -0.1517306,-0.6652802 -0.081701,0.075865 -0.6010864,0.6361013 -0.7469813,0.8053391 -1.6106784,1.2488593 -0.1458948,-0.081701 -0.2859538,-0.2684464 -0.1400589,-0.1867454 -0.1400589,-0.3384759 0,-0.046686 0.017507,-0.093373 0.1809096,-0.2684464 0.7528171,-0.7469812 l 0.8695329,-0.7294739 q -0.3734907,0 -1.4064257,0.2392674 -0.2275959,0.052522 -1.2780383,0.2976253 -0.023343,0.011672 -0.046686,0.011672 h -0.035015 q -0.1984169,0 -0.1984169,-0.8987118 0.3092969,-0.1692379 0.8461897,-0.2567748 l 2.4276891,-0.4085054 q -0.2042527,-0.233432 -0.671116,-0.560236 -0.2100885,-0.145895 -0.9045476,-0.606923 -0.5660718,-0.37349 -0.8228466,-0.577743 -0.058358,-0.09337 -0.058358,-0.186745 0,-0.116716 0.093373,-0.303461 0.1517306,-0.303462 0.1867453,-0.396834 0.3326401,0.07003 1.5873352,1.038771 0.5077138,0.390998 0.892876,0.536892 0,-0.822846 -0.1867453,-1.99584 -0.07003,-0.449356 -0.1925811,-1.143815 -0.040851,-0.07587 -0.040851,-0.157567 0,-0.350147 0.5368927,-0.350147 0.1867454,0 0.3618191,0.04669 0.1925811,0.431849 0.2976253,1.196337 0.011672,0.08754 0.140059,1.418098 0.081701,0.846189 0.2042527,1.371411 0.3384759,-0.227596 1.3597394,-1.114637 0.3968337,-0.344311 0.5952506,-0.48437 0.064194,-0.02334 0.1167159,-0.02334 0.081701,0 0.35598323,0.233431 0.15756636,0.134223 0.35014746,0.204253 -0.11088003,0.210088 -0.41434116,0.449356 l -0.60108653,0.472699 q -0.3793264,0.297625 -0.531057,0.507714 0.5018781,-0.140059 1.6748721,-0.285954 l 2.4743754,-0.309297 q 0.064194,-0.02334 0.1225516,-0.02334 0.1750738,0 0.2392675,0.233432 0.040851,0.15173 0.040851,0.478534 z"
       style="font-size:11.9517px;fill:#000000"
       id="path1548" />
  </g>
</svg>
